<svg width="96" height="96" viewBox="0 0 96 96" fill="none" xmlns="http://www.w3.org/2000/svg">
<g clip-path="url(#clip0_230_452)">
<rect width="96" height="96" transform="translate(96) rotate(90)" fill="#8BBC39"/>
<path d="M63 39L96 96L96 0L63 39Z" fill="#94C83E"/>
<path d="M12.5 96L63 39.5L96.5 0L7.62939e-06 -4.21815e-06L3.4331e-06 96L12.5 96Z" fill="#83B333"/>
<path d="M22 50.2737C22 42.6707 24.5 36.391 29.5 31.4346C34.5 26.4782 40.6667 24 48 24C55.381 24 61.5476 26.4782 66.5 31.4346C71.5 36.391 74 42.6707 74 50.2737C74 54.8451 72.9286 59.0556 70.7857 62.9053C68.6905 66.803 65.8333 69.8346 62.2143 72L57.2857 63.4105C59.5238 62.1594 61.2619 60.379 62.5 58.0692C63.7857 55.7594 64.4286 53.1609 64.4286 50.2737C64.4286 45.3654 62.9048 41.3955 59.8571 38.3639C56.8095 35.3805 52.8571 33.8887 48 33.8887C43.1905 33.8887 39.2619 35.3804 36.2143 38.3639C33.1667 41.3955 31.6429 45.3654 31.6429 50.2737C31.6429 53.1609 32.2619 55.7594 33.5 58.0692C34.7857 60.4271 36.5238 62.2075 38.7143 63.4105L33.7857 72C30.1667 69.8346 27.2857 66.8271 25.1429 62.9774C23.0476 59.1278 22 54.8932 22 50.2737Z" fill="white"/>
<rect width="96" height="96" transform="translate(96) rotate(90)" fill="#1F1F1F"/>
<g clip-path="url(#clip1_230_452)">
<path d="M45.7633 51.0438L21.2114 51.0438C19.5393 51.0438 18.1818 49.6863 18.1818 48.0141C18.1818 47.2211 18.505 46.5057 19.0222 45.9842C19.5393 45.4627 20.259 45.1438 21.052 45.1438L45.7719 45.1438C47.4009 45.1438 48.7197 46.4626 48.7197 48.0874C48.7197 49.7121 47.3966 51.0438 45.7633 51.0438Z" fill="#94C83E"/>
<path d="M47.375 50.6472C45.9615 51.4617 44.1557 50.979 43.3412 49.5654L31.0632 26.1678C30.2271 24.7197 30.7227 22.8665 32.1707 22.0304C32.6232 21.7675 33.1188 21.6468 33.6058 21.6468C34.597 21.6468 35.5667 22.1597 36.0968 23.082L48.4524 46.6218C49.2669 48.0311 48.7843 49.8326 47.375 50.6472Z" fill="#94C83E"/>
<path d="M47.375 45.5399C45.9615 44.7254 44.1557 45.2081 43.3412 46.6217L31.0632 70.0193C30.2271 71.4674 30.7227 73.3206 32.1707 74.1567C32.6232 74.4196 33.1188 74.5402 33.6058 74.5402C34.597 74.5402 35.5667 74.0274 36.0968 73.1051L48.4524 49.5652C49.2669 48.1559 48.7843 46.3545 47.375 45.5399Z" fill="#94C83E"/>
<path d="M62.9793 22.3074C64.3528 23.1004 64.8207 24.8586 64.0299 26.2283L56.4105 39.4259C55.5981 40.833 53.7945 41.3195 52.3837 40.5049C50.973 39.6904 50.485 37.8808 51.3016 36.4663L58.837 23.4142C59.673 21.9661 61.5275 21.4692 62.9756 22.3053L62.9793 22.3074Z" fill="white"/>
<path d="M77.8182 48.169C77.8182 49.755 76.5296 51.0436 74.948 51.0436L59.7092 51.0436C58.0845 51.0436 56.7614 49.7249 56.7614 48.0958C56.7614 46.4667 58.0845 45.1393 59.7178 45.1393L74.7885 45.1393C76.4606 45.1436 77.8182 46.4969 77.8182 48.169Z" fill="white"/>
<path d="M62.8418 73.9556C61.4683 74.7486 59.7119 74.2748 58.921 72.905L51.3017 59.7074C50.4893 58.3003 50.9698 56.4951 52.3806 55.6806C53.7914 54.866 55.6024 55.3482 56.4191 56.7627L63.9545 69.8148C64.7905 71.2629 64.2936 73.1174 62.8455 73.9535L62.8418 73.9556Z" fill="white"/>
</g>
</g>
<defs>
<clipPath id="clip0_230_452">
<rect width="96" height="96" fill="white" transform="translate(96) rotate(90)"/>
</clipPath>
<clipPath id="clip1_230_452">
<rect width="52.8936" height="59.6364" fill="white" transform="translate(77.8182 21.6469) rotate(90)"/>
</clipPath>
</defs>
</svg>
