<svg width="189" height="46" viewBox="0 0 189 46" fill="none" xmlns="http://www.w3.org/2000/svg">
<g clip-path="url(#clip0_788_2134)">
<path d="M149.788 17.5894C150.314 18.2046 150.588 19.1159 150.588 20.2779H144.281C144.373 19.0704 144.715 18.159 145.332 17.5666C145.927 16.9515 146.681 16.6553 147.572 16.6553C148.509 16.6553 149.24 16.9515 149.788 17.5894Z" fill="#94C83E"/>
<path d="M150.175 0H62.6335C60.0742 0 58.0176 2.05054 58.0176 4.60232V34.244C58.0176 36.7958 60.0742 38.8463 62.6335 38.8463H150.175C152.712 38.8463 154.768 36.7958 154.768 34.244V4.60232C154.768 2.05054 152.712 0 150.175 0ZM64.2102 24.447C65.1928 25.6545 66.6095 26.2469 68.4376 26.2469C70.0372 26.2469 71.6367 25.8596 73.2134 25.0394L73.6933 27.819C72.208 28.6848 70.3799 29.1176 68.1862 29.1176C65.3756 29.1176 63.159 28.2519 61.5138 26.4975C59.8914 24.7432 59.0687 22.3053 59.0687 19.2067C59.0687 16.2676 59.9142 13.9209 61.628 12.121C63.3418 10.3438 65.5812 9.45526 68.3462 9.45526C70.6084 9.45526 72.5051 9.97929 74.0361 11.0273L72.9392 13.693C71.4311 12.7817 69.9458 12.326 68.4376 12.326C66.6781 12.326 65.2842 12.9412 64.2559 14.2171C63.2276 15.493 62.702 17.179 62.702 19.3206C62.702 21.4623 63.2276 23.2167 64.2102 24.447ZM82.8337 28.7987C82.628 28.8442 82.4224 28.8898 82.2396 28.9126C82.0568 28.9354 81.8282 28.9809 81.5312 29.0037C81.2341 29.0265 80.9828 29.0493 80.7314 29.0493C79.7488 29.0493 78.9262 28.9354 78.2863 28.7075C77.6237 28.4569 77.121 28.1152 76.7325 27.5911C76.3669 27.0899 76.1155 26.4975 75.9556 25.7912C75.8185 25.1077 75.727 24.2419 75.727 23.1939V9.22742L79.1547 8.99959V23.1483C79.1547 24.4242 79.3146 25.3128 79.6346 25.7457C79.9316 26.2013 80.5257 26.4292 81.4169 26.4292C81.8282 26.4292 82.3995 26.3836 83.0622 26.2925L83.1536 28.7303C83.1536 28.7303 83.0393 28.7531 82.8337 28.7987ZM88.2493 28.8442H84.8217V14.5133H88.2493V28.8442ZM88.2722 12.4172H84.8217V9.50083H88.2722V12.4172ZM94.3734 25.3128C95.0132 26.133 95.9501 26.5659 97.1612 26.5659C98.3723 26.5659 99.6291 26.1785 100.772 25.4495L101.092 28.0468C100.497 28.4341 99.8805 28.7303 99.2406 28.8898C98.578 29.0721 97.8239 29.1632 96.9327 29.1632C94.739 29.1632 93.0252 28.5025 91.7912 27.2038C90.5801 25.9051 89.9632 24.0369 89.9632 21.6218C89.9632 19.2067 90.603 17.4296 91.9055 16.1309C93.1623 14.8322 94.8761 14.1943 96.9784 14.1943C98.6465 14.1943 100.063 14.5588 101.229 15.2651L100.429 17.7258C99.2406 17.1106 98.1438 16.7916 97.1155 16.7916C95.9501 16.7916 95.0361 17.2245 94.3734 18.0447C93.7107 18.865 93.368 20.0725 93.368 21.6446C93.368 23.2167 93.7107 24.4698 94.3734 25.3128ZM112.494 28.8442L107.787 22.3509L106.347 23.4673V28.8442H102.92V9.22742L106.347 8.99959V17.8169L106.256 20.7104C106.256 20.7104 106.37 20.6193 106.53 20.4598C106.69 20.2775 106.804 20.2092 106.827 20.1636C107.307 19.594 107.81 19.0244 108.381 18.4321C108.952 17.8169 109.638 17.0878 110.506 16.222C111.374 15.3563 111.923 14.7867 112.197 14.5133H116.287L110.369 20.6193L116.653 28.8442H112.494ZM139.093 28.8898H135.825V19.4573L135.939 14.0348L135.437 15.4702L130.546 27.5911H127.507L122.709 15.4018L122.229 13.9664L122.343 19.5029V28.8898H119.167V9.77423H123.348L129.13 23.5812L134.957 9.77423H139.093V28.8898ZM153.786 21.6901V22.4192H144.234C144.257 23.7635 144.645 24.7887 145.331 25.5406C146.039 26.2697 146.999 26.6342 148.233 26.6342C149.787 26.6342 151.318 26.2241 152.758 25.4039L153.237 27.8418C151.798 28.7303 150.084 29.1632 148.096 29.1632C145.788 29.1632 143.983 28.5025 142.703 27.181C141.423 25.8596 140.784 24.0141 140.784 21.6674C140.784 19.3206 141.378 17.5891 142.589 16.222C143.8 14.8778 145.468 14.2171 147.548 14.1943C149.536 14.1943 151.067 14.8094 152.163 16.0398C153.26 17.2929 153.809 18.9333 153.809 20.9838C153.809 21.1205 153.809 21.3712 153.786 21.6901Z" fill="#94C83E"/>
<path d="M9.36947 12.0979C10.8776 12.0979 12.3858 12.5536 13.8711 13.4649L14.9908 10.7992C13.4369 9.77397 11.5403 9.24994 9.30091 9.24994C6.53595 9.24994 4.29656 10.1385 2.58274 11.9156C0.868922 13.6928 0.0234375 16.0623 0.0234375 19.0014C0.0234375 22.1 0.846071 24.5151 2.49134 26.2922C4.1366 28.0465 6.35314 28.9351 9.14096 28.9351C11.3575 28.9351 13.1856 28.5022 14.648 27.6364L14.1682 24.8796C12.5914 25.677 10.9919 26.0871 9.39232 26.0871C7.56424 26.0871 6.14749 25.472 5.1649 24.2644C4.18231 23.0569 3.67959 21.3481 3.67959 19.1381C3.67959 16.9281 4.18231 15.3104 5.2106 14.0345C6.23889 12.7586 7.6328 12.1435 9.39232 12.1435L9.36947 12.0979ZM22.3259 26.2238C21.4348 26.2238 20.8635 25.996 20.5436 25.5403C20.2465 25.0847 20.0865 24.2189 20.0865 22.9202V8.77148L16.6589 8.99932V22.9658C16.6589 23.991 16.7275 24.8568 16.8874 25.5631C17.0245 26.2694 17.2987 26.8618 17.6644 27.363C18.03 27.8643 18.5555 28.2288 19.1954 28.4567C19.8352 28.6845 20.6578 28.7984 21.6404 28.7984C21.8918 28.7984 22.1431 28.7984 22.4402 28.7528C22.7373 28.7301 22.9658 28.6845 23.1486 28.6617C23.3314 28.6389 23.537 28.5934 23.7427 28.5478C23.9484 28.5022 24.0626 28.4794 24.0626 28.4794L23.9712 26.0416C23.3085 26.1327 22.7373 26.1783 22.3031 26.1783L22.3259 26.2238ZM25.7536 28.6389H29.1812V14.3079H25.7536V28.6389ZM25.7536 12.2118H29.2041V9.29551H25.7536V12.2118ZM38.0245 16.5863C39.0528 16.5863 40.1497 16.9053 41.3379 17.5204L42.1377 15.0826C40.9723 14.3535 39.5555 13.989 37.8646 13.989C35.7623 13.989 34.0713 14.6269 32.7917 15.9256C31.512 17.2243 30.8722 19.047 30.8722 21.3937C30.8722 23.7404 31.4892 25.677 32.7003 26.9985C33.9342 28.2972 35.6252 28.9579 37.8417 28.9579C38.7329 28.9579 39.487 28.8668 40.1497 28.7073C40.7895 28.525 41.4293 28.2516 42.0234 27.8415L41.7035 25.2441C40.5381 25.9732 39.327 26.3605 38.0702 26.3605C36.8134 26.3605 35.9451 25.9504 35.2824 25.1074C34.6197 24.2644 34.2998 23.0569 34.2998 21.462C34.2998 19.8672 34.6426 18.6824 35.3053 17.8394C35.9679 17.0192 36.882 16.6091 38.0474 16.6091L38.0245 16.5863ZM51.2781 20.414L57.1965 14.3079H53.1061C52.8548 14.5813 52.2835 15.1509 51.4152 16.0167C50.5468 16.8825 49.8385 17.6116 49.29 18.2267C48.7188 18.8191 48.216 19.4115 47.7362 19.9811C47.7362 19.9811 47.6219 20.095 47.462 20.2545C47.302 20.414 47.2106 20.5051 47.1877 20.5051L47.2563 17.6116V8.79427L43.8287 9.02211V28.6389H47.2563V23.2392L48.6731 22.1228L53.4032 28.6389H57.5392L51.2552 20.414H51.2781Z" fill="white"/>
<path d="M166.287 13.6244C166.287 14.4218 166.333 15.2648 166.424 16.1306C165.556 14.6725 164.093 13.9206 162.037 13.9206C160.14 13.9206 158.632 14.6041 157.558 15.9711C156.484 17.3382 155.936 19.1609 155.936 21.4165C155.936 23.6721 156.484 25.6087 157.558 26.9985C158.655 28.3883 160.14 29.0946 162.037 29.0946C162.562 29.0946 163.042 29.049 163.499 28.9351C163.933 28.844 164.299 28.7073 164.596 28.5706C164.893 28.4339 165.144 28.2516 165.396 28.0238C165.647 27.7959 165.83 27.5909 165.967 27.4314C166.104 27.2491 166.241 27.0441 166.378 26.8162L166.767 28.7984H169.783V8.70312L166.31 8.93096V13.6244H166.287ZM162.859 26.4972C161.785 26.4972 160.94 26.0644 160.323 25.2214C159.706 24.3784 159.386 23.148 159.386 21.5304C159.386 19.9127 159.706 18.6824 160.323 17.8394C160.94 16.9964 161.785 16.5863 162.837 16.5863C164.025 16.5863 164.939 16.9964 165.533 17.8166C166.127 18.6368 166.447 19.9355 166.447 21.7354C166.401 24.9024 165.236 26.4972 162.882 26.4972H162.859ZM171.451 28.8668H174.925V14.3079H171.451V28.8668ZM171.451 12.189H174.948V9.22715H171.451V12.189ZM187.63 15.2193C186.739 14.3763 185.299 13.9434 183.334 13.9434C181.369 13.9434 179.472 14.3079 177.758 15.037C177.758 15.037 177.918 15.4471 178.192 16.2218C178.467 16.9964 178.627 17.4065 178.627 17.4293C180.363 16.7686 181.826 16.4268 183.014 16.4268C183.837 16.4268 184.476 16.6319 184.865 17.0192C185.276 17.4293 185.482 18.0673 185.482 18.9558V19.7305C185.253 19.7533 184.933 19.7988 184.545 19.8216C184.156 19.8672 183.791 19.89 183.471 19.9355C183.151 19.9811 182.854 20.0039 182.58 20.0494C180.569 20.2545 179.084 20.7102 178.101 21.4392C177.118 22.1683 176.616 23.2847 176.616 24.7885C176.616 26.2011 177.027 27.2719 177.872 28.0238C178.718 28.7756 179.815 29.1402 181.163 29.1402C182.146 29.1402 182.991 28.9807 183.699 28.6389C184.385 28.2972 185.116 27.7959 185.825 27.0896C185.825 27.1352 185.916 27.4314 186.099 27.9782C186.282 28.525 186.373 28.8212 186.396 28.8668H188.978V19.3659C188.978 17.4521 188.521 16.0851 187.63 15.2193ZM185.482 24.6973C185.23 25.2441 184.796 25.6998 184.202 26.0871C183.608 26.4745 182.9 26.6567 182.1 26.6567C181.437 26.6567 180.912 26.4972 180.546 26.1555C180.18 25.8137 179.998 25.3581 179.998 24.7201C179.998 23.8088 180.317 23.1708 180.98 22.7607C181.643 22.3506 182.671 22.1 184.065 21.9633C184.111 21.9633 184.339 21.9633 184.773 21.9177C185.208 21.8721 185.436 21.8721 185.482 21.8721V24.6745V24.6973Z" fill="white"/>
<path d="M139.034 33.5718L141.31 38.1664C141.095 38.2806 140.866 38.3805 140.652 38.4946L141.625 40.4638L140.966 40.792C141.296 41.4483 141.61 42.1047 141.94 42.7611L135.356 46.0002C135.027 45.3438 134.698 44.6874 134.383 44.031L133.725 44.3592C133.653 44.2023 133.568 44.0596 133.496 43.9169C133.424 43.7742 133.353 43.6315 133.281 43.4888C133.21 43.3461 133.138 43.1892 133.067 43.0465L132.408 43.3747C132.337 43.2177 132.251 43.075 132.179 42.9323C132.108 42.7896 132.036 42.6469 131.965 42.5043L131.75 42.0619L131.12 42.3758H131.092C130.877 41.9478 130.662 41.5197 130.462 41.1059L129.818 41.4198C129.746 41.3199 129.704 41.2058 129.646 41.0916C129.589 40.9775 129.532 40.8776 129.489 40.7634C129.274 40.8633 129.045 40.9775 128.831 41.0773L127.857 39.1082L129.818 38.1379C129.904 38.2378 129.933 38.3519 129.99 38.4518C130.047 38.566 130.104 38.6659 130.147 38.78L130.791 38.4661L127.872 32.573C127.986 32.5016 128.086 32.4588 128.201 32.4017C128.315 32.3447 128.416 32.2876 128.53 32.2448C128.43 32.0307 128.315 31.8024 128.215 31.5884L129.532 30.9463C129.646 31.1603 129.746 31.3744 129.861 31.6027L130.491 31.2887H130.519C130.519 31.2887 130.519 31.303 130.534 31.3173C130.949 32.1592 131.364 33.001 131.793 33.8429C131.793 33.8429 131.793 33.8429 131.822 33.8715C132.251 33.6717 132.68 33.4434 133.124 33.2436C133.195 33.3435 133.238 33.4576 133.296 33.5718C133.353 33.686 133.41 33.7858 133.453 33.9L135.428 32.9297C135.543 33.1437 135.643 33.372 135.757 33.5861L137.059 32.944C137.131 33.0438 137.174 33.158 137.231 33.2722C137.288 33.3863 137.346 33.4862 137.389 33.6003L138.033 33.2864C138.104 33.3863 138.147 33.5005 138.204 33.6146C138.262 33.7288 138.319 33.8286 138.362 33.9428C138.576 33.8429 138.805 33.7288 139.02 33.6289L139.034 33.5718Z" fill="white"/>
<path d="M140.966 40.7922C141.295 41.4486 141.61 42.1049 141.939 42.7613L135.356 46.0004C135.027 45.344 134.697 44.6876 134.383 44.0313C134.497 43.9599 134.597 43.9028 134.712 43.86C134.826 43.803 134.926 43.7459 135.055 43.7173L135.27 44.1454C135.341 44.2881 135.413 44.4451 135.485 44.5878C135.556 44.7304 135.613 44.8731 135.699 45.0016L140.951 42.4189L140.737 41.9908C140.665 41.8481 140.594 41.6911 140.522 41.5484C140.451 41.4057 140.365 41.2773 140.322 41.1204L140.966 40.8064V40.7922Z" fill="#1F1F1F"/>
<path d="M139.033 33.5723L141.309 38.1669C141.094 38.2811 140.865 38.3809 140.65 38.4951C140.65 38.4666 140.622 38.438 140.608 38.4238C139.863 36.9255 139.119 35.413 138.375 33.9147C138.59 33.8006 138.819 33.6864 139.033 33.5865V33.5723Z" fill="#1F1F1F"/>
<path d="M129.975 38.4378C130.032 38.5519 130.089 38.6518 130.132 38.766L128.816 39.4223L129.46 40.7351C129.245 40.8493 129.016 40.9634 128.801 41.0633L127.828 39.0942L129.789 38.1239C129.875 38.2237 129.903 38.3379 129.96 38.4378H129.975Z" fill="#1F1F1F"/>
<path d="M129.846 31.5601L128.53 32.2165C128.43 31.9882 128.315 31.7741 128.215 31.5601L129.531 30.918C129.646 31.132 129.746 31.346 129.861 31.5743L129.846 31.5601Z" fill="#1F1F1F"/>
<path d="M133.294 33.5438C133.351 33.6579 133.409 33.7578 133.451 33.872C133.065 34.0718 132.679 34.2715 132.278 34.457C132.235 34.4713 132.206 34.4998 132.163 34.5141C132.163 34.5141 132.163 34.5141 132.163 34.5284C132.163 34.5284 132.163 34.5284 132.163 34.5569L133.437 37.1396C133.265 37.268 132.908 37.425 132.779 37.4535L129.859 31.5747L130.489 31.2607C130.518 31.2607 130.518 31.2607 130.518 31.2607C130.518 31.2607 130.518 31.275 130.532 31.2893C130.947 32.1312 131.362 32.973 131.791 33.8149C131.791 33.8149 131.791 33.8149 131.82 33.8434C132.249 33.6437 132.679 33.4154 133.122 33.2156C133.194 33.3155 133.237 33.4296 133.294 33.5438Z" fill="#1F1F1F"/>
<path d="M135.757 33.5577C135.613 33.6434 135.456 33.7147 135.313 33.786C135.17 33.8574 135.027 33.9287 134.884 34.0001C134.74 34.0714 134.583 34.1428 134.44 34.2284L135.384 36.1262V36.1547C135.384 36.1547 135.384 36.1547 135.384 36.169C135.384 36.169 135.384 36.169 135.384 36.1975C135.284 36.2403 135.184 36.2974 135.084 36.3545C134.969 36.3973 134.869 36.4686 134.755 36.4972L133.467 33.8859L135.442 32.9014C135.556 33.1154 135.656 33.3437 135.771 33.5577H135.757Z" fill="#1F1F1F"/>
<path d="M137.23 33.2296C137.287 33.3437 137.344 33.4436 137.387 33.5577C137.273 33.6291 137.173 33.6719 137.058 33.729C136.958 33.7861 136.829 33.8146 136.743 33.9145L137.702 35.8408C137.53 35.955 137.173 36.1262 137.044 36.1547L135.756 33.5577L137.058 32.9014C137.13 33.0013 137.173 33.1154 137.23 33.2296Z" fill="#1F1F1F"/>
<path d="M138.218 33.5717C138.275 33.6859 138.332 33.7858 138.375 33.8999C138.261 33.9713 138.161 34.0141 138.046 34.0712C137.932 34.1282 137.832 34.1853 137.717 34.2281L137.402 33.586L138.046 33.2578C138.118 33.3577 138.161 33.4718 138.218 33.586V33.5717Z" fill="#1F1F1F"/>
<path d="M128.529 32.2168L132.751 40.7497L132.078 41.0779L131.105 39.1088L130.446 39.437L130.117 38.7806L130.761 38.4524L127.842 32.5593C127.956 32.4879 128.056 32.4451 128.171 32.388C128.285 32.331 128.386 32.2739 128.5 32.2311L128.529 32.2168Z" fill="#1F1F1F"/>
<path d="M131.121 40.749L131.765 42.0618L131.135 42.3757C131.106 42.3757 131.106 42.3757 131.106 42.3757C130.892 41.9476 130.677 41.5196 130.477 41.1058C130.591 41.0344 130.691 40.9916 130.806 40.9345C130.92 40.8774 131.02 40.8204 131.135 40.7776L131.121 40.749Z" fill="#1F1F1F"/>
<path d="M132.436 41.7344L133.08 43.0471L132.422 43.3753C132.35 43.2184 132.265 43.0757 132.193 42.933C132.121 42.7903 132.05 42.6476 131.978 42.5049L131.764 42.0626C131.878 41.9912 131.978 41.9484 132.093 41.8913C132.207 41.8343 132.307 41.7772 132.422 41.7344H132.436Z" fill="#1F1F1F"/>
<path d="M133.739 42.7188L134.383 44.0315L133.725 44.3597C133.653 44.2027 133.567 44.06 133.496 43.9174C133.424 43.7747 133.353 43.632 133.281 43.4893C133.21 43.3466 133.138 43.1896 133.066 43.0469C133.181 42.9756 133.281 42.9328 133.396 42.8757C133.51 42.8186 133.61 42.7616 133.725 42.7188H133.739Z" fill="#1F1F1F"/>
<path d="M130.133 40.4068L130.448 41.049L129.804 41.3771C129.732 41.2773 129.689 41.1631 129.632 41.049C129.575 40.9348 129.518 40.8349 129.475 40.7208C129.589 40.6494 129.689 40.6066 129.804 40.5495C129.918 40.4925 130.018 40.4354 130.133 40.3926V40.4068Z" fill="#1F1F1F"/>
<path d="M140.669 38.4956L140.002 38.8242L140.978 40.7944L141.645 40.4657L140.669 38.4956Z" fill="#1F1F1F"/>
</g>
<defs>
<clipPath id="clip0_788_2134">
<rect width="189" height="46" fill="white"/>
</clipPath>
</defs>
</svg>
